<?xml version="1.0" encoding="UTF-8"?>
<svg width="21px" height="20px" viewBox="0 0 21 20" version="1.1" xmlns="http://www.w3.org/2000/svg" xmlns:xlink="http://www.w3.org/1999/xlink">
    <title>编组 10</title>
    <defs>
        <filter color-interpolation-filters="auto" id="filter-1">
            <feColorMatrix in="SourceGraphic" type="matrix" values="0 0 0 0 0.670588 0 0 0 0 0.003922 0 0 0 0 0.396078 0 0 0 1.000000 0"></feColorMatrix>
        </filter>
    </defs>
    <g id="移动端-页面-3" stroke="none" stroke-width="1" fill="none" fill-rule="evenodd">
        <g id="画板备份-2" transform="translate(-31.000000, -1400.000000)">
            <g id="编组-50" transform="translate(16.000000, 1388.000000)">
                <g id="编组-10" transform="translate(16.000000, 12.000000)">
                    <rect id="矩形备份-41" stroke="#979797" fill="#D8D8D8" opacity="0" x="0.5" y="0.5" width="19" height="19"></rect>
                    <g filter="url(#filter-1)" id="资源-3@1">
                        <g transform="translate(0.000000, 1.000000)">
                            <path d="M4.20511739,0 L9.32531599,0 C9.44284748,0 9.53812557,0.0949806948 9.53812557,0.21214532 L9.53812557,5.34497676 C9.53812557,6.86811688 8.29951032,8.10286592 6.77160098,8.10286592 C5.24369163,8.10286592 4.00507638,6.86811688 4.00507638,5.34497676 L4.00507638,0.21214532 C4.00507638,0.0949806948 4.10035448,0 4.21788596,0 L4.20511739,0 Z" id="路径" stroke="#FFFFFF"></path>
                            <line x1="3.9923078" y1="3.62980642" x2="9.53812557" y2="3.62980642" id="路径" stroke="#FFFFFF"></line>
                            <path d="M8.10378897,15.8514983 L0.425619169,15.8514983 C0.190556193,15.8514983 0,15.6615369 0,15.4272076 L0,10.5478653 C0,10.313536 0.190556193,10.1235746 0.425619169,10.1235746 L8.10378897,10.1235746" id="路径" stroke="#FFFFFF"></path>
                            <path d="M15.4010296,7.99787855 C15.0694883,7.56052794 14.6221388,7.22404268 14.1092754,7.02625298 L14.1092754,7.01140281 L13.8964659,6.94775922 C13.7235848,6.89668247 13.5461088,6.862577 13.36657,6.84592946 L13.3410328,6.84592946 C13.2516528,6.84592946 13.1601447,6.83107929 13.0643804,6.83107929 L13.0494837,6.83107929 C12.9537194,6.83107929 12.8622113,6.83107929 12.7749594,6.84592946 L12.7472941,6.84592946 C12.5684918,6.86284568 12.3917477,6.89694743 12.2195263,6.94775922 L12.0067168,7.00928136 L12.0067168,7.02413153 C10.860452,7.46038452 10.105188,8.55890139 10.1105834,9.78202068 C10.1053927,10.1899575 10.1775966,10.5951966 10.3233929,10.9763988 C10.493264,11.3739408 10.7398266,11.7343412 11.0490736,12.0371254 C11.168247,12.1622912 11.2618832,12.2683638 11.3427508,12.3595863 C11.3983788,12.4198414 11.4385388,12.4926317 11.4597961,12.5717316 C11.4985616,12.8045046 11.5177811,13.0400957 11.5172547,13.2760541 L11.5172547,13.3015115 C11.5172547,13.6951847 11.8373891,14.0143198 12.2322949,14.0143198 L13.8858254,14.0143198 C14.2807312,14.0143198 14.6008656,13.6951847 14.6008656,13.3015115 L14.6008656,13.2760541 C14.6015023,13.0401429 14.6207142,12.8046454 14.6583242,12.5717316 C14.6696194,12.524217 14.6890577,12.4790026 14.7157828,12.4380801 C14.8013179,12.3147358 14.8974438,12.1990349 15.0030757,12.0922832 C15.2588331,11.8411303 15.4780297,11.5554933 15.654273,11.2437019 C15.8934781,10.785784 16.0121033,10.2748061 15.9990246,9.7586847 C15.9961106,9.12270032 15.7862723,8.50482793 15.4010296,7.99787855 Z M14.698758,11.6913286 C14.5859689,11.8101299 14.4731798,11.922567 14.3752874,12.0477327 C14.2709309,12.1698966 14.197901,12.3155004 14.1624778,12.4720233 C14.1172721,12.7347816 14.0951977,13.0009768 14.0965069,13.2675683 L14.0965069,13.2930257 C14.0965069,13.3492902 14.0740859,13.4032502 14.0341764,13.4430351 C13.9942668,13.4828201 13.9401379,13.505171 13.8836973,13.505171 L12.2237825,13.505171 C12.106251,13.505171 12.0109729,13.4101903 12.0109729,13.2930257 L12.0109729,13.2675683 C12.0113035,13.0010155 11.989236,12.7349036 11.945002,12.4720233 C11.922522,12.3636529 11.8807162,12.2601833 11.8215724,12.1665341 C11.7160141,12.0136303 11.5955451,11.8715084 11.4619242,11.7422434 C11.2382341,11.5249034 11.0456082,11.2779126 10.8894664,11.0082206 C10.6915873,10.6242106 10.5942296,10.1965904 10.6064297,9.76504906 C10.6023783,9.22933632 10.7759412,8.70729004 11.1001479,8.28003182 C11.415788,7.86494339 11.8554071,7.56039893 12.3557245,7.41023601 L12.4174393,7.39114293 C12.5410141,7.35822921 12.666942,7.33482441 12.7941122,7.32113498 L12.8196494,7.32113498 C12.8903013,7.31304224 12.9613432,7.30879303 13.0324589,7.30840626 L13.0579961,7.30840626 C13.1291119,7.30879303 13.2001537,7.31304224 13.2708057,7.32113498 L13.2942147,7.32113498 C13.4214405,7.33444622 13.5473978,7.3578565 13.6708877,7.39114293 L13.7347306,7.41023601 C14.7691587,7.71999117 15.4791445,8.66712823 15.4840254,9.74383453 C15.4997727,10.0976006 15.4447948,10.4509568 15.3222901,10.7833466 C15.1781525,11.1249132 14.9660347,11.4337973 14.698758,11.6913286 Z" id="形状" stroke="#979797" stroke-width="0.3" fill="#FFFFFF" fill-rule="nonzero"></path>
                            <path d="M12.2301668,14.3325378 C12.1277241,14.3114501 12.0226642,14.3542371 11.9643384,14.4407998 C11.9060126,14.5273625 11.9060126,14.6404974 11.9643384,14.7270601 C12.0226642,14.8136229 12.1277241,14.8564098 12.2301668,14.8353222 L13.8709287,14.8353222 C13.9733715,14.8564098 14.0784313,14.8136229 14.1367571,14.7270601 C14.1950829,14.6404974 14.1950829,14.5273625 14.1367571,14.4407998 C14.0784313,14.3542371 13.9733715,14.3114501 13.8709287,14.3325378 L12.2301668,14.3325378 Z" id="路径" stroke="#979797" stroke-width="0.1" fill="#FFFFFF" fill-rule="nonzero"></path>
                            <path d="M12.2283234,15.1500144 C12.126773,15.1313764 12.0238748,15.1750138 11.9669175,15.2608723 C11.9099603,15.3467308 11.9099603,15.4582039 11.9669175,15.5440623 C12.0238748,15.6299208 12.126773,15.6735582 12.2283234,15.6549202 L13.8690853,15.6549202 C13.9706358,15.6735582 14.0735339,15.6299208 14.1304912,15.5440623 C14.1874485,15.4582039 14.1874485,15.3467308 14.1304912,15.2608723 C14.0735339,15.1750138 13.9706358,15.1313764 13.8690853,15.1500144 L12.2283234,15.1500144 Z" id="路径" stroke="#979797" stroke-width="0.1" fill="#FFFFFF" fill-rule="nonzero"></path>
                            <path d="M13.1941942,15.9433234 L12.3429559,15.9433234 C12.3429559,15.9433234 12.3429559,15.9581736 12.3429559,15.9666594 C12.3429559,16.1066753 12.6047117,16.2191123 12.8451865,16.2191123 L13.2473966,16.2191123 C13.4878715,16.2191123 13.7496272,16.1066753 13.7496272,15.9666594 C13.7496272,15.9666594 13.7496272,15.9518092 13.7496272,15.9433234 L13.1941942,15.9433234 Z" id="路径" stroke="#979797" stroke-width="0.1" fill="#FFFFFF" fill-rule="nonzero"></path>
                        </g>
                    </g>
                </g>
            </g>
        </g>
    </g>
</svg>