<?xml version="1.0" encoding="UTF-8"?>
<svg width="20px" height="20px" viewBox="0 0 20 20" version="1.1" xmlns="http://www.w3.org/2000/svg" xmlns:xlink="http://www.w3.org/1999/xlink">
    <title>编组 11</title>
    <defs>
        <filter color-interpolation-filters="auto" id="filter-1">
            <feColorMatrix in="SourceGraphic" type="matrix" values="0 0 0 0 0.670588 0 0 0 0 0.003922 0 0 0 0 0.396078 0 0 0 1.000000 0"></feColorMatrix>
        </filter>
    </defs>
    <g id="移动端-页面-3" stroke="none" stroke-width="1" fill="none" fill-rule="evenodd">
        <g id="画板备份-2" transform="translate(-32.000000, -1540.000000)">
            <g id="编组-8备份-4" transform="translate(16.000000, 1528.000000)">
                <g id="编组-11" transform="translate(16.000000, 12.000000)">
                    <rect id="矩形备份-52" stroke="#979797" fill="#D8D8D8" opacity="0" x="0.5" y="0.5" width="19" height="19"></rect>
                    <g filter="url(#filter-1)" id="朋友圈">
                        <g transform="translate(2.000000, 2.000000)">
                            <path d="M11.2298326,5.94722406 L11.2298326,0.715000585 C11.2298326,0.715000585 8.66853608,-0.657569192 5.67864666,0.400747677 L11.2298326,5.94722406 Z M11.7147417,9.02534241 L11.7147417,0.931045781 C11.7147417,0.931045781 14.742647,2.30271169 15.5959408,5.63479856 L11.7147417,9.02534241 Z M10.0858175,11.3780834 L15.6754321,6.12351852 C15.6754321,6.12351852 16.6644548,7.73087903 15.1895795,11.3780834 L10.0858175,11.3780834 Z M7.23165702,12.0442964 L14.7810364,12.0442964 C14.7810364,12.0442964 13.869677,14.5135583 10.607799,15.533048 L7.23165702,12.0442964 Z M4.76728727,10.3773589 L4.76728727,15.2964888 C4.76728727,15.2964888 6.72797586,16.5516337 10.0858175,15.7089101 L4.76728727,10.3773589 Z M0.399822805,10.631799 L4.22384077,7.20195637 L4.22384077,15.0018853 C4.22384077,15.0018853 1.91353959,14.2002093 0.399822805,10.631799 Z M0.302915693,10.0832073 C0.302915693,10.0832073 -0.571823426,7.26176915 0.651643733,4.81125277 L5.91126308,4.81125277 L0.302915693,10.0832073 Z M0.982091115,4.26132491 C0.982091115,4.26132491 2.08858175,1.75366805 5.09683045,0.577061783 L8.68685604,4.26132491 L0.982091115,4.26132491 Z" id="形状" fill="#5D5D5D" fill-rule="nonzero"></path>
                        </g>
                    </g>
                </g>
            </g>
        </g>
    </g>
</svg>