<?xml version="1.0" encoding="UTF-8"?>
<svg width="12px" height="12px" viewBox="0 0 12 12" version="1.1" xmlns="http://www.w3.org/2000/svg" xmlns:xlink="http://www.w3.org/1999/xlink">
    <title>筛选</title>
    <g id="移动端-页面-3" stroke="none" stroke-width="1" fill="none" fill-rule="evenodd">
        <g id="画板备份-3" transform="translate(-32.000000, -1328.000000)" fill-rule="nonzero">
            <g id="编组-14" transform="translate(16.000000, 1265.000000)">
                <g id="编组-7备份-2" transform="translate(16.000000, 59.000000)">
                    <g id="筛选" transform="translate(0.000000, 4.000000)">
                        <path d="M6.76543208,11.9999858 C6.56881212,12.0009533 6.37509577,11.9525984 6.2020705,11.8593464 L4.65282618,11.0038797 C4.27551424,10.7977507 4.04134387,10.4020694 4.04251782,9.97263222 L4.04251782,5.06248781 C4.04251782,4.98871674 4.00773161,4.91925089 3.94862422,4.87498825 L0.368930905,2.01562014 L0.321984108,1.96874526 C-0.00664347675,1.62890232 -0.0888003672,1.13671602 0.0989868176,0.703123309 C0.286774002,0.269530602 0.69755849,0 1.16702646,0 L10.8145934,0 C11.2840613,0 11.7065825,0.269530602 11.8943697,0.703123309 C12.0821569,1.13671602 12,1.61718361 11.6831091,1.96874526 L11.6361623,2.01562014 L8.02125891,4.91014443 C7.96654655,4.95677372 7.93626768,5.02587656 7.93910202,5.09764397 L7.93910202,10.8280989 C7.93910202,11.475306 7.41363209,11.9999858 6.76543208,11.9999858 Z M0.979239267,1.31249683 L4.53545919,4.14842751 C4.81704738,4.3683789 4.98154637,4.70551751 4.98145376,5.06248781 L4.98145376,9.97263222 C4.97853493,10.0591965 5.02366799,10.1403116 5.09882076,10.1835692 L6.64806508,11.0273172 C6.72193553,11.0699679 6.81316856,11.0692327 6.88633995,11.0253971 C6.95951134,10.9815615 7.0030942,10.9015311 7.00016606,10.8163802 L7.00016606,5.09764397 C6.99895852,4.74304903 7.15862152,4.40697772 7.43442394,4.18358367 L11.0023806,1.31249683 C11.055727,1.24147724 11.0643079,1.14645906 11.0245458,1.06705674 C10.9847838,0.98765443 10.903504,0.937497737 10.8145934,0.937497737 L1.16702646,0.937497737 C1.07811579,0.937497737 0.996836066,0.987654424 0.957074002,1.06705674 C0.917311938,1.14645905 0.925892864,1.24147724 0.979239267,1.31249683 Z" id="形状" fill="#821552"></path>
                        <path d="M11.530532,6.10545404 L8.87803796,6.10545404 C8.61875796,6.10545404 8.40856999,5.89558802 8.40856999,5.63670517 C8.40856999,5.37782232 8.61875796,5.1679563 8.87803796,5.1679563 L11.530532,5.1679563 C11.789812,5.1679563 12,5.37782232 12,5.63670517 C12,5.89558802 11.789812,6.10545404 11.530532,6.10545404 L11.530532,6.10545404 Z M11.530532,7.86326231 L8.87803796,7.86326231 C8.61875796,7.86326231 8.40856999,7.65339629 8.40856999,7.39451344 C8.40856999,7.13563059 8.61875796,6.92576457 8.87803796,6.92576457 L11.530532,6.92576457 C11.789812,6.92576457 12,7.13563059 12,7.39451344 C12,7.65339628 11.789812,7.86326231 11.530532,7.86326231 L11.530532,7.86326231 Z M11.530532,9.60935185 L8.87803796,9.60935185 C8.61875796,9.60935185 8.40856999,9.39948583 8.40856999,9.14060298 C8.40856999,8.88172013 8.61875796,8.67185411 8.87803796,8.67185411 L11.530532,8.67185411 C11.789812,8.67185411 12,8.88172013 12,9.14060298 C12,9.39948583 11.789812,9.60935185 11.530532,9.60935185 L11.530532,9.60935185 Z" id="形状" fill="#F2B622"></path>
                    </g>
                </g>
            </g>
        </g>
    </g>
</svg>