<?xml version="1.0" encoding="UTF-8"?>
<svg width="7px" height="14px" viewBox="0 0 7 14" version="1.1" xmlns="http://www.w3.org/2000/svg" xmlns:xlink="http://www.w3.org/1999/xlink">
    <title>3</title>
    <g id="移动端-页面-6" stroke="none" stroke-width="1" fill="none" fill-rule="evenodd">
        <g id="画板备份-4" transform="translate(-52.000000, -1093.000000)" fill="#E6CCDC" fill-rule="nonzero">
            <g id="编组-43" transform="translate(16.000000, 626.000000)">
                <g id="编组-8" transform="translate(16.000000, 173.000000)">
                    <g id="编组-82" transform="translate(0.000000, 52.000000)">
                        <g id="编组-78" transform="translate(20.000000, 240.000000)">
                            <path d="M3.47865854,16 C4.58841463,16 5.4527439,15.710798 6.07164634,15.1323944 C6.69054878,14.5539904 7,13.7521127 7,12.7267606 L7,11.3267606 C7,10.6037561 6.90396341,10.0450704 6.71189024,9.65070423 C6.51981707,9.25633803 6.125,8.94084507 5.52743902,8.70422535 C6.08231707,8.46760563 6.46646341,8.15211268 6.67987805,7.75774648 C6.89329268,7.36338028 7,6.83755889 7,6.18028169 L7,5.25352113 C7,4.21502307 6.69410547,3.41314594 6.08231707,2.84788732 C5.47052867,2.28262871 4.6097561,2 3.5,2 C2.40447165,2 1.5472561,2.27934312 0.928353659,2.83802817 C0.30945122,3.39671321 0,4.15586814 0,5.11549296 L0,6.08169014 L2.53963415,6.08169014 L2.53963415,5.25352113 C2.53963415,4.54366197 2.84552835,4.18873239 3.45731707,4.18873239 C3.79878049,4.18873239 4.0370936,4.28732394 4.1722561,4.48450704 C4.30741859,4.68169014 4.375,4.98403716 4.375,5.3915493 L4.375,6.51549296 C4.375,6.93615044 4.30741859,7.24178424 4.1722561,7.43239437 C4.0370936,7.62300449 3.76321127,7.71830986 3.35060976,7.71830986 L2.75304878,7.71830986 L2.75304878,9.88732394 L3.30792683,9.88732394 C3.7347561,9.88732394 4.01930883,9.98591549 4.16158537,10.1830986 C4.3038619,10.3802817 4.375,10.7220659 4.375,11.2084507 L4.375,12.6084507 C4.375,13.0159625 4.31097561,13.3183099 4.18292683,13.515493 C4.05487805,13.7126761 3.81300824,13.8112676 3.45731707,13.8112676 C2.84552835,13.8112676 2.53963415,13.456338 2.53963415,12.7464789 L2.53963415,11.8591549 L0,11.8591549 L0,12.8647887 C0,13.8375586 0.298780488,14.6032862 0.896341463,15.1619718 C1.49390244,15.7206572 2.35467469,16 3.47865854,16 Z" id="3"></path>
                        </g>
                    </g>
                </g>
            </g>
        </g>
    </g>
</svg>