<?xml version="1.0" encoding="UTF-8"?>
<svg width="20px" height="20px" viewBox="0 0 20 20" version="1.1" xmlns="http://www.w3.org/2000/svg" xmlns:xlink="http://www.w3.org/1999/xlink">
    <title>编组 8备份 3</title>
    <defs>
        <filter color-interpolation-filters="auto" id="filter-1">
            <feColorMatrix in="SourceGraphic" type="matrix" values="0 0 0 0 0.670588 0 0 0 0 0.003922 0 0 0 0 0.396078 0 0 0 1.000000 0"></feColorMatrix>
        </filter>
    </defs>
    <g id="移动端-页面-3" stroke="none" stroke-width="1" fill="none" fill-rule="evenodd">
        <g id="画板备份-2" transform="translate(-32.000000, -303.000000)">
            <g id="编组-57" transform="translate(16.000000, 291.000000)">
                <g id="编组-8备份-3" transform="translate(16.000000, 12.000000)">
                    <rect id="矩形" stroke="#979797" stroke-width="1.25" fill="#D8D8D8" opacity="0" x="0.625" y="0.625" width="18.75" height="18.75"></rect>
                    <g filter="url(#filter-1)" id="资源-1@1">
                        <g transform="translate(2.500000, 1.250000)">
                            <path d="M5.67390555,4.55393571 L9.82419855,4.55393571 C9.91938724,4.55393571 9.99655291,4.63190384 9.99655291,4.7280824 L9.99655291,8.65774991 C9.99655291,9.90807114 8.99339913,10.9216568 7.75594623,10.9216568 C6.51849332,10.9216568 5.51533954,9.90807114 5.51533954,8.65774991 L5.51533954,4.7280824 C5.51533954,4.63190384 5.59250521,4.55393571 5.6876939,4.55393571 L5.67390555,4.55393571 Z" id="路径" stroke="#FFFFFF"></path>
                            <line x1="5.50155119" y1="7.53358543" x2="9.99138228" y2="7.53358543" id="路径" stroke="#FFFFFF"></line>
                            <path d="M2.26645984,14.4472087 L2.26645984,13.3413773 C2.26645984,13.0528416 2.49795687,12.8189372 2.78352292,12.8189372 L12.2147535,12.8189372 C12.5003196,12.8189372 12.7318166,13.0528416 12.7318166,13.3413773 L12.7318166,14.4454672" id="路径" stroke="#FFFFFF"></path>
                            <polygon id="路径" stroke="#FFFFFF" points="0 4.37456463 0 13.1236939 7.49913823 17.5 15 13.1236939 15 4.37456463 7.49913823 0"></polygon>
                        </g>
                    </g>
                </g>
            </g>
        </g>
    </g>
</svg>