<?xml version="1.0" encoding="UTF-8"?>
<svg width="20px" height="20px" viewBox="0 0 20 20" version="1.1" xmlns="http://www.w3.org/2000/svg" xmlns:xlink="http://www.w3.org/1999/xlink">
    <title>编组 9</title>
    <defs>
        <filter color-interpolation-filters="auto" id="filter-1">
            <feColorMatrix in="SourceGraphic" type="matrix" values="0 0 0 0 0.670588 0 0 0 0 0.003922 0 0 0 0 0.396078 0 0 0 1.000000 0"></feColorMatrix>
        </filter>
    </defs>
    <g id="移动端-页面-3" stroke="none" stroke-width="1" fill="none" fill-rule="evenodd">
        <g id="画板备份-2" transform="translate(-31.000000, -631.000000)">
            <g id="编组-27" transform="translate(16.000000, 619.000000)">
                <g id="编组-9" transform="translate(15.000000, 12.000000)">
                    <rect id="矩形备份-8" stroke="#979797" fill="#D8D8D8" opacity="0" x="0.5" y="0.5" width="19" height="19"></rect>
                    <g filter="url(#filter-1)" id="资源-2@1">
                        <g transform="translate(2.000000, 3.000000)">
                            <path d="M3.3350211,0 L7.39578059,0 C7.48899321,0 7.56455696,0.0778947839 7.56455696,0.173982869 L7.56455696,4.23516592 C7.56455696,5.48431103 6.58222814,6.49694322 5.37046414,6.49694322 C4.15870013,6.49694322 3.17637131,5.48431103 3.17637131,4.23516592 L3.17637131,0.173982869 C3.17637131,0.0778947839 3.25193506,0 3.34514768,0 L3.3350211,0 Z" id="路径" stroke="#FFFFFF"></path>
                            <line x1="3.16624473" y1="2.9768469" x2="7.56455696" y2="2.9768469" id="路径" stroke="#FFFFFF"></line>
                            <path d="M6.42700422,13 L0.337552743,13 C0.151127511,13 0,12.8442104 0,12.6520343 L0,8.65042827 C0,8.45825209 0.151127511,8.30246253 0.337552743,8.30246253 L6.42700422,8.30246253" id="路径" stroke="#FFFFFF"></path>
                            <path d="M16.3555355,7.81879015 C16.3546544,8.35519157 16.1477227,8.86940025 15.7800081,9.24892934 L14.9158731,10.1449411 L12.1462528,13 L9.37494483,10.1449411 L8.50743428,9.24892934 C8.01268926,8.73892219 7.81946933,7.99557057 8.00055857,7.29888784 C8.18164781,6.60220511 8.70953446,6.05803396 9.38536871,5.87135838 C10.061203,5.68468281 10.7823095,5.88386329 11.2770545,6.39387045 L12.1462528,7.2881424 L13.0137634,6.39387045 C13.5746412,5.82078097 14.4142494,5.65038736 15.1440015,5.96155103 C15.8737535,6.2727147 16.3512654,7.00472363 16.3555355,7.81879015 Z" id="路径" stroke="#FFFFFF"></path>
                        </g>
                    </g>
                </g>
            </g>
        </g>
    </g>
</svg>