<?xml version="1.0" encoding="UTF-8"?>
<svg width="7px" height="14px" viewBox="0 0 7 14" version="1.1" xmlns="http://www.w3.org/2000/svg" xmlns:xlink="http://www.w3.org/1999/xlink">
    <title>2</title>
    <g id="移动端-页面-6" stroke="none" stroke-width="1" fill="none" fill-rule="evenodd">
        <g id="画板备份-4" transform="translate(-52.000000, -1006.000000)" fill="#CC99B9" fill-rule="nonzero">
            <g id="编组-43" transform="translate(16.000000, 626.000000)">
                <g id="编组-8" transform="translate(16.000000, 173.000000)">
                    <g id="编组-82" transform="translate(0.000000, 52.000000)">
                        <g id="编组-77" transform="translate(20.000000, 153.000000)">
                            <path d="M7,16 L7,13.78 L2.91489362,13.78 L5.93617021,9.24 C6.30496476,8.68 6.57446809,8.17666687 6.74468085,7.73 C6.91489362,7.28333313 7,6.76 7,6.16 L7,5.18 C7,4.20666626 6.69148936,3.43333374 6.07446809,2.86 C5.45744681,2.28666626 4.62411337,2 3.57446809,2 C2.5248228,2 1.68085106,2.28 1.04255319,2.84 C0.404255319,3.4 0.085106383,4.15333374 0.085106383,5.1 L0.085106383,6.32 L2.61702128,6.32 L2.61702128,5.4 C2.61702128,4.6 2.91489362,4.2 3.5106383,4.2 C4.12056748,4.2 4.42553191,4.56666626 4.42553191,5.3 L4.42553191,6.08 C4.42553191,6.52 4.37234043,6.88333313 4.26595745,7.17 C4.15957447,7.45666687 3.9787234,7.8 3.72340426,8.2 L0,13.86 L0,16 L7,16 Z" id="2"></path>
                        </g>
                    </g>
                </g>
            </g>
        </g>
    </g>
</svg>