<?xml version="1.0" encoding="UTF-8"?>
<svg width="12px" height="12px" viewBox="0 0 12 12" version="1.1" xmlns="http://www.w3.org/2000/svg" xmlns:xlink="http://www.w3.org/1999/xlink">
    <title>编组 20</title>
    <defs>
        <filter color-interpolation-filters="auto" id="filter-1">
            <feColorMatrix in="SourceGraphic" type="matrix" values="0 0 0 0 0.541176 0 0 0 0 0.556863 0 0 0 0 0.556863 0 0 0 1.000000 0"></feColorMatrix>
        </filter>
    </defs>
    <g id="移动端-页面-6" stroke="none" stroke-width="1" fill="none" fill-rule="evenodd">
        <g id="画板备份-4" transform="translate(-72.000000, -1140.000000)">
            <g id="编组-43" transform="translate(16.000000, 626.000000)">
                <g id="编组-8" transform="translate(16.000000, 173.000000)">
                    <g id="编组-82" transform="translate(0.000000, 52.000000)">
                        <g id="编组-78" transform="translate(20.000000, 240.000000)">
                            <g id="编组-76备份-2" transform="translate(20.000000, 0.000000)">
                                <g id="编组-20" transform="translate(0.000000, 48.000000)" filter="url(#filter-1)">
                                    <g transform="translate(0.000000, 1.000000)">
                                        <rect id="矩形" stroke="#979797" stroke-width="0.6" fill="#D8D8D8" opacity="0" x="0.3" y="0.3" width="11.4" height="11.4"></rect>
                                        <g id="PersonInHospital" transform="translate(1.200000, 0.000000)" fill="#3F4444">
                                            <path d="M4.8,0 L0,3 L0,12 L9.6,12 L9.6,3 L4.8,0 Z M3.2,1.63636364 L4.26666667,1.63636364 L4.26666667,2.72727273 L5.33333333,2.72727273 L5.33333333,1.63636364 L6.4,1.63636364 L6.4,4.90909091 L5.33333333,4.90909091 L5.33333333,3.81818182 L4.26666667,3.81818182 L4.26666667,4.90909091 L3.2,4.90909091 L3.2,1.63636364 Z M4.8,5.45454545 C5.68,5.45454545 6.4,6.19090909 6.4,7.09090909 C6.4,7.99090909 5.68,8.72727273 4.8,8.72727273 C3.92,8.72727273 3.2,7.99090909 3.2,7.09090909 C3.2,6.19090909 3.92,5.45454545 4.8,5.45454545 Z M7.46666667,11.4545455 L2.13333333,11.4545455 L2.13333333,10.3636364 C2.13333333,9.57272727 2.69333333,8.89090909 3.44,8.75454545 C3.78666667,9.08181818 4.26666667,9.27272727 4.8,9.27272727 C5.33333333,9.27272727 5.81333333,9.08181818 6.16,8.75454545 C6.90666667,8.89090909 7.46666667,9.57272727 7.46666667,10.3636364 L7.46666667,11.4545455 Z" id="形状"></path>
                                        </g>
                                    </g>
                                </g>
                            </g>
                        </g>
                    </g>
                </g>
            </g>
        </g>
    </g>
</svg>