<?xml version="1.0" encoding="UTF-8"?>
<svg width="16px" height="16px" viewBox="0 0 16 16" version="1.1" xmlns="http://www.w3.org/2000/svg" xmlns:xlink="http://www.w3.org/1999/xlink">
    <title>形状</title>
    <g id="移动端-页面-6" stroke="none" stroke-width="1" fill="none" fill-rule="evenodd">
        <g id="画板备份-4" transform="translate(-47.000000, -2598.000000)" fill="#8A8E8E" fill-rule="nonzero" stroke="#FFFFFF" stroke-width="0.5">
            <g id="编组-71" transform="translate(16.000000, 2108.000000)">
                <g id="编组-49" transform="translate(16.000000, 372.000000)">
                    <g id="编组-40" transform="translate(16.000000, 119.000000)">
                        <path d="M2.93733223,7.87500001 L2.18733224,7.87500001 L2.18733224,12.25 L2.93733223,12.25 L2.93733223,7.87500001 Z M7,9.71250001 L8.74999999,7.96249999 L8.74999999,6.12499999 L14,6.12499999 L14,14 L8.74999999,14 L8.74999999,10.5 L8.22499999,11.025 L7,12.1625 L5.77500001,10.9375 L5.25000001,10.4125 L5.25000001,14 L0,14 L0,6.12499999 L5.25000001,6.12499999 L5.25000001,7.87500001 L7,9.71250001 Z M11.875,7.87500001 L11.125,7.87500001 L11.125,12.25 L11.875,12.25 L11.875,7.87500001 Z M14,2.625 C14,4.1125 12.8625,5.25000001 11.375,5.25000001 C9.8875,5.25000001 8.74999999,4.1125 8.74999999,2.625 C8.74999999,1.13750001 9.8875,0 11.375,0 C12.8625,0 14,1.13750001 14,2.625 Z M12.25,2.625 C12.25,2.1 11.9,1.74999999 11.375,1.74999999 C10.85,1.74999999 10.5,2.1 10.5,2.625 C10.5,3.15 10.85,3.49999999 11.375,3.49999999 C11.9,3.49999999 12.25,3.14999998 12.25,2.625 Z M2.625,5.25000001 C1.13750001,5.25000001 0,4.1125 0,2.625 C0,1.13750001 1.13750001,0 2.625,0 C4.1125,0 5.25000001,1.13750001 5.25000001,2.625 C5.25000001,4.1125 4.1125,5.25000001 2.625,5.25000001 Z M3.49999999,2.625 C3.49999999,2.1 3.14999998,1.74999999 2.625,1.74999999 C2.10000002,1.74999999 1.74999999,2.1 1.74999999,2.625 C1.74999999,3.15 2.1,3.49999999 2.625,3.49999999 C3.15,3.49999999 3.49999999,3.14999998 3.49999999,2.625 Z" id="形状"></path>
                    </g>
                </g>
            </g>
        </g>
    </g>
</svg>