<?xml version="1.0" encoding="UTF-8"?>
<svg width="18px" height="18px" viewBox="0 0 18 18" version="1.1" xmlns="http://www.w3.org/2000/svg" xmlns:xlink="http://www.w3.org/1999/xlink">
    <title>编组 15</title>
    <g id="移动端-页面-6" stroke="none" stroke-width="1" fill="none" fill-rule="evenodd">
        <g id="画板备份-4" transform="translate(-165.000000, -2524.000000)">
            <g id="编组-71" transform="translate(16.000000, 2108.000000)">
                <g id="编组-49" transform="translate(16.000000, 372.000000)">
                    <g id="编组-62" transform="translate(16.000000, 44.000000)">
                        <g id="编组-15" transform="translate(117.000000, 0.000000)">
                            <rect id="矩形" stroke="#979797" stroke-width="0.675" fill="#D8D8D8" opacity="0" x="0.3375" y="0.3375" width="17.325" height="17.325"></rect>
                            <g id="PersonProfile" transform="translate(0.000000, 2.000000)">
                                <polygon id="路径" fill="#8A8E8E" points="18 0 18 14 0 14 0 0"></polygon>
                                <polygon id="路径" fill="#8A8E8E" points="16.7727273 1.16666667 1.22727273 1.16666667 1.22727273 12.8333333 16.7727273 12.8333333"></polygon>
                                <path d="M9,8.55555556 C9,7.66111111 8.26363636,7.11666667 7.36363636,7 C6.91363636,7.42777778 6.42272727,7.7 5.72727273,7.7 C5.03181818,7.7 4.54090909,7.42777778 4.09090909,7 C3.19090909,7.11666667 2.45454545,7.66111111 2.45454545,8.55555556 L2.45454545,10.8888889 L9,10.8888889 L9,8.55555556 Z" id="路径" fill="#FFFFFF"></path>
                                <polygon id="路径" fill="#FFFFFF" points="15.5454545 10.1111111 10.6363636 10.1111111 10.6363636 8.55555556 15.5454545 8.55555556"></polygon>
                                <polygon id="路径" fill="#FFFFFF" points="15.5454545 6.22222222 10.6363636 6.22222222 10.6363636 7.77777778 15.5454545 7.77777778"></polygon>
                                <polygon id="路径" fill="#FFFFFF" points="15.5454545 3.88888889 10.6363636 3.88888889 10.6363636 5.44444444 15.5454545 5.44444444"></polygon>
                                <path d="M5.72727273,6.65 C6.75,6.65 7.56818182,5.87222222 7.56818182,4.9 C7.56818182,3.92777778 6.75,3.11111111 5.72727273,3.11111111 C4.70454545,3.11111111 3.88636364,3.88888889 3.88636364,4.86111111 C3.88636364,5.83333333 4.70454545,6.65 5.72727273,6.65 Z" id="路径" fill="#FFFFFF"></path>
                            </g>
                        </g>
                    </g>
                </g>
            </g>
        </g>
    </g>
</svg>