<?xml version="1.0" encoding="UTF-8"?>
<svg width="20px" height="20px" viewBox="0 0 20 20" version="1.1" xmlns="http://www.w3.org/2000/svg" xmlns:xlink="http://www.w3.org/1999/xlink">
    <title>编组 9</title>
    <g id="KEE" stroke="none" stroke-width="1" fill="none" fill-rule="evenodd">
        <g id="KEE-360-移动-品牌认可度" transform="translate(-32.000000, -1104.000000)">
            <g id="编组-72" transform="translate(16.000000, 1092.000000)">
                <g id="编组-9" transform="translate(16.000000, 12.000000)">
                    <rect id="矩形备份-8" stroke="#979797" fill="#D8D8D8" opacity="0" x="0.5" y="0.5" width="19" height="19"></rect>
                    <g id="科研-(1)" transform="translate(3.000000, 2.000000)" fill="#830051" fill-rule="nonzero">
                        <path d="M4.41841814,11.965 L0.818149494,8.4285 L0,9.2325 L3.60026865,12.769 L4.41841814,11.965 Z M11.4956937,4.0925 L13,2.6145 L10.3385746,0 L8.83375474,1.478 L7.79219343,0.4545 L0.965036346,7.1615 L5.70958439,11.8225 L10.0432601,7.5655 C11.1469659,9.4995 10.8275126,11.9955 9.18094185,13.6125 L7.90826485,14.863 L0.617849241,14.863 L0.617849241,16 L12.0452355,16 L12.0452355,14.863 L9.54815898,14.863 L9.99138748,14.437 C12.0852955,12.3795 12.4401865,9.167 10.8881163,6.735 L12.5367415,5.115 L11.4951802,4.0925 L11.4956937,4.0925 Z M5.7090708,10.231 L2.58438685,7.1615 L7.79270702,2.075 L10.8881163,5.1445 L5.7090708,10.231 Z M10.8008059,3.183 L9.75975822,2.16 L10.3385746,1.5915 L11.3791087,2.6145 L10.8008059,3.183 Z" id="形状"></path>
                    </g>
                </g>
            </g>
        </g>
    </g>
</svg>