<?xml version="1.0" encoding="UTF-8"?>
<svg width="20px" height="20px" viewBox="0 0 20 20" version="1.1" xmlns="http://www.w3.org/2000/svg" xmlns:xlink="http://www.w3.org/1999/xlink">
    <title>编组 9</title>
    <g id="KEE" stroke="none" stroke-width="1" fill="none" fill-rule="evenodd">
        <g id="KEE-360-移动-医学理解阶梯" transform="translate(-32.000000, -1908.000000)">
            <g id="编组-74备份" transform="translate(16.000000, 1896.000000)">
                <g id="编组-9" transform="translate(16.000000, 12.000000)">
                    <rect id="矩形备份-8" stroke="#979797" fill="#D8D8D8" opacity="0" x="0.5" y="0.5" width="19" height="19"></rect>
                    <g id="资源-5" transform="translate(2.000000, 4.000000)" stroke="#830051" stroke-width="1.03520531">
                        <path d="M10.4798938,0 C10.5689382,0 10.6411229,0.0681857597 10.6411229,0.152297157 L10.6411229,4.20340153 C10.6411229,5.2968497 9.70272126,6.18326457 8.54514416,6.18326457 C7.38756706,6.18326457 6.4491654,5.2968497 6.4491654,4.20340153 L6.4491654,0.152297157 C6.4491654,0.0681857597 6.52135014,0 6.61039454,0 L10.4798938,0 Z" id="路径"></path>
                        <line x1="6.44594082" y1="2.60580436" x2="10.6475721" y2="2.60580436" id="路径"></line>
                        <rect id="矩形" x="3.42128225" y="7.88949973" width="9.78983308" height="4.10288541" rx="0.307891109"></rect>
                        <path d="M4.62727618,0.995403575 L2.87794006,0.995403575 C2.83932337,0.995008338 2.80216094,1.00931692 2.77485308,1.03511195 C2.74754521,1.06090698 2.73239745,1.09601064 2.73281587,1.13248799 L2.73281587,4.78761976 C2.73154888,5.26301357 2.93057393,5.7193524 3.28599016,6.05593599 C3.64140638,6.39251959 4.12399966,6.58168027 4.62727618,6.58168027" id="路径"></path>
                        <line x1="4.62727618" y1="3.34688865" x2="2.73283384" y2="3.34688865" id="路径"></line>
                        <path d="M2.03471168,8.28851395 L0.285375569,8.28851395 C0.209837906,8.28811286 0.137246715,8.31617395 0.0836815588,8.36648577 C0.0301164031,8.41679759 0,8.4852072 0,8.55656128 L0,11.730434 C0,11.8793112 0.127766994,12 0.285375569,12 L2.03471168,12" id="路径"></path>
                        <path d="M12.3727238,0.995420551 L14.1220599,0.995420551 C14.1605445,0.995420551 14.1974528,1.00986154 14.2246655,1.03556667 C14.2518782,1.06127181 14.2671723,1.09613545 14.2671723,1.13248799 L14.2671723,4.78761976 C14.2684511,5.26301357 14.0694261,5.7193524 13.7140098,6.05593599 C13.3585936,6.39251959 12.8760003,6.58168027 12.3727238,6.58168027" id="路径"></path>
                        <line x1="12.3727238" y1="3.34688865" x2="14.2671662" y2="3.34688865" id="路径"></line>
                        <path d="M14.9652883,8.28851829 L16.7146244,8.28851829 C16.8716055,8.28851829 16.9991131,8.40827921 17,8.55656128 L17,11.730434 C16.9991191,11.8789652 16.8718667,11.9991679 16.7146244,12 L14.9652883,12" id="路径"></path>
                    </g>
                </g>
            </g>
        </g>
    </g>
</svg>